<?xml version="1.0" encoding="UTF-8"?>
<svg width="200px" height="93px" viewBox="0 0 200 93" version="1.1" xmlns="http://www.w3.org/2000/svg" xmlns:xlink="http://www.w3.org/1999/xlink">
    <!-- Generator: Sketch 61 (89581) - https://sketch.com -->
    <title>形状结合</title>
    <desc>Created with Sketch.</desc>
    <g id="Page-1" stroke="none" stroke-width="1" fill="none" fill-rule="evenodd">
        <g id="hawkeye" fill="#012643" fill-rule="nonzero">
            <path d="M161.907552,44.0962243 C161.907552,44.0962243 162.960003,48.9856312 164.898728,50.0111248 C166.837453,51.0366184 170.714903,49.8646257 171.15804,49.2786294 L170.862615,52.2452358 C170.862615,52.2452358 196.656889,82.277548 197.561628,83.8890379 L197.857053,64.9540313 C197.857053,64.9540313 202.786953,75.7583388 197.70934,92.917044 C197.70934,92.917044 187.868003,57.7206391 154.171116,50.0294372 C154.152652,50.0111248 143.554289,48.3813225 133.860664,52.6664207 C133.860664,52.6664207 140.729289,48.2348234 144.754452,48.0883243 C148.779614,47.9418252 151.623077,48.0883243 153.100201,47.9418252 C154.577325,47.7953261 161.445951,44.8287197 161.907552,44.0962243 Z M29.5301376,38.692406 C56.2540019,18.7824102 87.0067752,32.9584766 98.6499526,37.3289635 C110.29313,41.6994504 132.285798,46.6115788 132.285798,46.6115788 L132.285798,46.6115788 L116.1332,56.2117081 C94.7504123,47.5641208 68.6179474,47.0971885 43.9270188,54.7735565 C19.2360902,62.4499245 -0.00287432576,81.8929879 -0.00287432576,81.8929879 C37.1813684,33.238636 91.017203,43.0442156 91.0356842,43.0628929 C60.7530735,22.2149233 30.7544528,38.0315585 29.566621,38.6725631 L29.5301376,38.692406 Z M90.8506044,2.05783522 C90.8506044,2.05783522 99.8422415,-1.27418021 109.872088,0.541581007 C119.901935,2.35734222 145.504926,22.0124894 145.504926,22.0124894 C144.763348,16.883432 139.516681,11.7356553 139.516681,11.7356553 C143.409968,12.7839298 145.486387,12.1849158 149.991475,19.8972212 C154.496563,27.6095266 167.214632,29.2755343 168.864643,29.4252878 C170.514655,29.5750413 170.959602,28.6578011 170.514655,26.2430259 C170.051169,23.8282506 155.683089,7.80462587 155.683089,7.80462587 C163.006175,12.1849158 175.742782,27.9090336 175.742782,27.9090336 L175.742782,27.9090336 L176.039414,30.6233158 C185.160827,35.7523733 190.555809,47.2459546 190.555809,47.2459546 C189.49906,46.4971871 177.670886,35.3031127 177.670886,35.3031127 C174.964125,39.5336492 168.234302,37.418381 168.234302,37.418381 C171.830957,37.8863607 174.519178,35.3031127 173.925915,32.8883375 C173.332653,30.4735623 170.032629,31.9898165 170.032629,31.9898165 C170.032629,31.9898165 162.691004,39.4026149 160.299414,41.0686226 C157.907824,42.7346303 156.702759,40.6193621 156.257812,39.4026149 C155.794325,38.2045869 153.847682,38.0548334 153.106104,38.5040939 C152.345986,38.9533544 147.711122,40.1701016 146.209426,40.3198551 C144.70773,40.4883278 144.70773,41.0873418 139.312747,41.3868488 C131.69303,41.8361093 93.6500625,27.4784922 93.6500625,27.4784922 C93.6500625,27.4784922 138.274538,37.3060658 139.664997,37.5868537 C141.018378,37.8863607 143.558283,37.5868537 142.668389,35.7710924 C141.759956,33.9553312 129.190203,31.540556 129.190203,31.540556 C129.190203,31.540556 138.941958,31.840063 138.478472,28.0587871 C138.014985,24.2775111 133.231805,22.3119964 133.231805,22.3119964 L133.231805,22.3119964 L130.228413,24.8765251 C130.228413,24.8765251 127.24356,27.9090336 121.551947,25.9435188 C116.319334,24.1365134 116.022708,17.2190966 116.008896,16.1151363 L116.008649,15.9661918 C102.530463,4.62236395 72.4409227,13.8509235 72.4409227,13.8509235 C85.6039378,6.43812516 102.678779,8.10413288 104.477106,8.25388638 C106.275433,8.40363988 108.222076,8.85290039 107.925445,6.58787867 C107.628814,4.32285694 90.8506044,2.05783522 90.8506044,2.05783522 Z M108.550003,14.1737864 C109.450509,23.873524 119.686877,28.3475727 119.686877,28.3475727 C93.1311284,20.2584926 62.9917318,18.9520704 62.9917318,18.9520704 C68.5028307,17.110552 106.966339,14.2893457 108.502675,14.177234 L108.550003,14.1737864 Z" id="形状结合"></path>
        </g>
    </g>
</svg>